Coordinates
version=1
nRows=14
nColumns=33
inDegrees=yes

Units are S.I. units (second, meters, Newtons, ...)
Angles are in degrees.

endheader
time	ground_thorax_rot_x	ground_thorax_rot_y	ground_thorax_rot_z	ground_thorax_tx	ground_thorax_ty	ground_thorax_tz	clav_prot_r	clav_elev_r	scapula_abduction_r	scapula_elevation_r	scapula_upward_rot_r	scapula_winging_r	shoulder_elv_r	plane_of_elev_r	axial_rot_r	elbow_flexion_r	pro_sup_r	wrist_flex_r	wrist_dev_r	clav_prot_l	clav_elev_l	scapula_abduction_l	scapula_elevation_l	scapula_upward_rot_l	scapula_winging_l	shoulder_elv_l	plane_of_elev_l	axial_rot_l	elbow_flexion_l	pro_sup_l	wrist_flex_l	wrist_dev_l
      5.31000000	    -22.07961010	    -36.43415468	     50.17328427	     -9.03382581	    827.68029088	    -46.63355254	     28.05509037	    -45.00000000	     41.83852789	    -45.00000000	    -45.00000000	    255.23608438	   3313.80361446	     21.49311736	   -151.65408962	   2877.88480070	    158.49354857	     12.65543033	     15.66754379	     -4.21235036	     38.86206878	    -35.06994160	    -45.00000000	    -18.60605302	   5141.72078381	  -3345.88000735	    142.54123919	    179.99999979	   2880.25303851	   -315.46557690	     14.56641744	    -24.95262904
      5.32000000	    -21.56104425	    -36.85240319	     51.01343130	     -5.59113867	    826.39481726	    -46.48934077	     28.24372190	    -45.00000000	     41.88480205	    -45.00000000	    -45.00000000	    255.32622220	   3313.71657293	     21.40332969	   -151.42667408	   2877.88476176	    159.21519188	     12.68393890	     15.61397230	     -4.21240918	     38.85539783	    -34.93409609	    -45.00000000	    -18.72192041	   5141.76789282	  -3346.02846106	    142.43149899	    179.99999979	   2880.04599806	   -315.30497985	     14.62242318	    -24.65273719
      5.33000000	    -21.45051060	    -37.00561353	     51.29115421	     -2.13872808	    825.08971271	    -46.34878265	     27.90165325	    -45.00000000	     41.82043713	    -45.00000000	    -45.00000000	    255.72027126	   3313.66350705	     21.18149122	   -151.49014785	   2877.91474255	    160.00788031	     12.68408511	     15.57707124	     -3.91819289	     38.96717095	    -35.10073100	    -45.00000000	    -18.39780094	   5141.85310594	  -3346.29495101	    142.55305169	    179.99999979	   2879.84250052	   -315.22791261	     14.62589026	    -24.27784364
      5.34000000	    -20.76527596	    -37.43508940	     52.40203465	      1.31956808	    823.76788917	    -46.21452087	     28.37071131	    -45.00000000	     41.87426585	    -45.00000000	    -45.00000000	    255.51829370	   3313.57397712	     21.33418981	   -151.00429272	   2878.13259254	    160.71758347	     12.63688578	     15.53646754	     -4.26319757	     38.81440127	    -34.73613956	    -45.00000000	    -18.77445133	   5141.68378734	  -3346.35170662	    142.41060540	    179.99999979	   2879.66083709	   -315.35285235	     14.82905692	    -24.27243896
      5.35000000	    -20.77770479	    -37.56374590	     52.50090256	      4.77621428	    822.43256912	    -46.08761267	     27.92466019	    -45.00000000	     41.77909458	    -45.00000000	    -45.00000000	    255.97846253	   3313.48945759	     21.07046088	   -151.13661978	   2878.08171701	    161.55774976	     12.67186877	     15.49104768	     -3.89748815	     38.93402192	    -34.95305616	    -45.00000000	    -18.32958326	   5141.81773369	  -3346.63381911	    142.59225948	    179.99999979	   2879.46542812	   -315.26811173	     14.78960059	    -23.82689436
      5.36000000	    -20.13544878	    -37.94284229	     53.52530725	      8.22940852	    821.08527193	    -45.96777786	     28.29129170	    -45.00000000	     41.90973211	    -45.00000000	    -45.00000000	    255.79946654	   3313.38842965	     21.11655107	   -150.58610548	   2878.19340564	    162.29551591	     12.66600988	     15.46255191	     -4.08620996	     38.81117065	    -34.61150646	    -45.00000000	    -18.78482374	   5141.66936553	  -3346.73358985	    142.40016933	    179.99999979	   2879.29516067	   -315.38411940	     14.94273915	    -23.74188197
      5.37000000	    -19.37748374	    -38.39383485	     54.76908257	     11.67107149	    819.72956530	    -45.85438130	     28.55415885	    -45.00000000	     42.18598291	    -45.00000000	    -45.00000000	    255.55954925	   3313.19067160	     21.07963432	   -150.03210187	   2878.33688799	    162.91615570	     12.56321974	     15.50190680	     -4.54002159	     38.64070669	    -34.21056534	    -45.00000000	    -19.32232470	   5141.18594363	  -3346.63569246	    142.53586927	    179.99999979	   2879.20608497	   -315.44279575	     15.05940681	    -23.66097108
      5.38000000	    -19.36738905	    -38.49310566	     54.91518767	     15.08986364	    818.37074988	    -45.74657210	     28.38631840	    -45.00000000	     41.89188255	    -45.00000000	    -45.00000000	    255.83558122	   3313.18217806	     21.05757063	   -149.83588813	   2878.41664214	    163.61105243	     12.64077712	     15.35138720	     -4.12218954	     38.69436637	    -34.29591281	    -45.00000000	    -19.12209300	   5141.43405777	  -3346.96243500	    142.33556254	    179.99999979	   2878.93614178	   -315.41933403	     15.10790797	    -23.37751811
      5.39000000	    -18.53833268	    -38.95850940	     56.15585951	     18.48384926	    817.01035931	    -45.64387320	     28.62834160	    -45.00000000	     42.30943801	    -45.00000000	    -45.00000000	    255.65022025	   3313.04727800	     20.89735365	   -149.24176249	   2878.46071782	    164.24680566	     12.52244742	     15.41441655	     -4.50438667	     38.56056856	    -33.86555381	    -45.00000000	    -19.72243701	   5140.96358581	  -3346.88769797	    142.46637169	    179.99999979	   2878.81578904	   -315.43077013	     15.12650558	    -23.19586171
      5.40000000	    -18.05735955	    -39.22853024	     56.88071455	     21.84379173	    815.65286984	    -45.54619267	     28.48981651	    -45.00000000	     42.39005233	    -45.00000000	    -45.00000000	    255.80380794	   3313.08049482	     20.65641905	   -148.74846487	   2878.36605785	    164.82160894	     12.50091477	     15.34887322	     -4.24228580	     38.51189182	    -33.70477938	    -45.00000000	    -20.13323297	   5140.89618166	  -3347.11549106	    142.40636903	    179.99999979	   2878.71034052	   -315.45743111	     15.01727016	    -22.86369341
      5.41000000	    -17.64814075	    -39.49411852	     57.59717159	     25.16193433	    814.30259877	    -45.45370186	     28.55359421	    -45.00000000	     42.37626250	    -45.00000000	    -45.00000000	    255.82487459	   3313.00776917	     20.56285332	   -148.28326097	   2878.45619945	    165.37151540	     12.49435584	     15.25407155	     -4.22483514	     38.41655969	    -33.48957977	    -45.00000000	    -20.34876783	   5140.78218381	  -3347.22164227	    142.32436050	    179.99999979	   2878.50822910	   -315.47454725	     15.03839061	    -22.63084982
      5.42000000	    -17.26609900	    -39.71132936	     58.24418310	     28.43344438	    812.96199760	    -45.36586144	     28.60878950	    -45.00000000	     42.35453193	    -45.00000000	    -45.00000000	    255.84456648	   3312.92878375	     20.49397381	   -147.80702566	   2878.51785255	    165.95288927	     12.47577073	     15.20356417	     -4.17103240	     38.37965213	    -33.36810339	    -45.00000000	    -20.62935547	   5140.70587920	  -3347.34383133	    142.24957502	    179.99999979	   2878.32741475	   -315.49701457	     15.06142581	    -22.45777172
      5.43000000	    -16.89810334	    -39.92669087	     58.87579124	     31.64919137	    811.63496364	    -45.28144262	     28.65657629	    -45.00000000	     42.33918706	    -45.00000000	    -45.00000000	    255.86432109	   3312.84122321	     20.40674054	   -147.33825517	   2878.58484226	    166.54388303	     12.46246803	     15.14955793	     -4.14617351	     38.31790244	    -33.21259187	    -45.00000000	    -20.88633511	   5140.59187735	  -3347.45197873	    142.19453645	    179.99999979	   2878.14984597	   -315.50622429	     15.07720940	    -22.28248037
      5.44000000	    -16.44693945	    -40.12937451	     59.59238960	     34.80322176	    810.32373485	    -45.19833338	     28.72088467	    -45.00000000	     42.35012558	    -45.00000000	    -45.00000000	    255.88874526	   3312.80005722	     20.26638431	   -146.91398439	   2878.66549591	    167.11573139	     12.42457951	     15.06633021	     -4.11662123	     38.22153160	    -32.99435685	    -45.00000000	    -21.27320758	   5140.42580331	  -3347.59289027	    142.13470645	    179.99999979	   2878.03657631	   -315.51178476	     15.03230282	    -22.07709692
